# xmcd CD database file
#
# Track frame offsets:
#	150
#	16495
#	27992
#
# Disc length: 588 seconds
#
# Revision: 0
# Processed by: cddbd v1.5.1PL0 Copyright (c) Steve Scherf et al.
# Submitted via: CDex 1.51
#
DISCID=1b024a03
DTITLE=川村知砂 - 氷の世界
DYEAR=1996
DGENRE=JPop
TTITLE0=氷の世界(single edit)
TTITLE1=DO IT!!
TTITLE2=氷の世界(backing track)
EXTD=YEAR: 1996
EXTT0=
EXTT1=
EXTT2=
PLAYORDER=
